<svg width="350" height="350" viewBox="0 0 350 350" fill="none" xmlns="http://www.w3.org/2000/svg">
<rect width="350" height="350" rx="12" fill="#3F8CFF"/>
<mask id="mask0_0_7130" style="mask-type:luminance" maskUnits="userSpaceOnUse" x="0" y="0" width="350" height="350">
<rect width="350" height="350" rx="12" fill="white"/>
</mask>
<g mask="url(#mask0_0_7130)">
</g>
<path fill-rule="evenodd" clip-rule="evenodd" d="M126.874 175V175C114.843 175 105 165.157 105 153.126C105 141.093 114.843 131.25 126.874 131.25C138.906 131.25 148.75 141.093 148.75 153.126C148.75 165.157 138.906 175 126.874 175" fill="white"/>
<path fill-rule="evenodd" clip-rule="evenodd" d="M297.5 125.241C297.5 90.0461 267.969 61.25 231.875 61.25H231.874C195.781 61.25 166.25 90.0461 166.25 125.241V218.75C166.25 218.75 297.488 204.502 297.5 125.25C297.5 125.247 297.5 125.244 297.5 125.241" fill="white"/>
<path fill-rule="evenodd" clip-rule="evenodd" d="M100.625 263.43C93.6685 263.43 87.9786 257.964 87.9786 251.285C87.9786 244.605 93.6685 239.14 100.625 239.14C107.58 239.14 113.27 244.605 113.27 251.285C113.27 257.964 107.58 263.43 100.625 263.43ZM52.5 251.274C52.5 251.277 52.5 251.281 52.5 251.284C52.5 276.702 74.1555 297.5 100.625 297.5C127.093 297.5 148.75 276.702 148.75 251.284V183.75C148.75 183.75 52.5126 194.04 52.5 251.274V251.274Z" fill="white"/>
</svg>
